<?xml version="1.0" encoding="utf-8"?>
<!-- Generator: Adobe Illustrator 27.8.1, SVG Export Plug-In . SVG Version: 6.00 Build 0)  -->
<svg version="1.1" id="Layer_1" xmlns="http://www.w3.org/2000/svg" xmlns:xlink="http://www.w3.org/1999/xlink" x="0px" y="0px"
	 viewBox="0 0 400 400" style="enable-background:new 0 0 400 400;" xml:space="preserve">
<style type="text/css">
	.st0{display:none;}
	.st1{display:inline;fill:#FFFFFF;}
</style>
<g class="st0">
	<g>
		<g>
			<path class="st1" d="M245.62,195.46l-57.93-57.93l-0.27-0.27l-5.71-5.71l-1.09-1.09l-3.51-3.51l-2.2-2.2
				c-10.45-10.45-24.1-15.81-37.82-16.06c-0.43-0.01-0.87-0.02-1.3-0.02c-0.44,0-0.88,0-1.31,0.02
				c-13.61,0.26-27.13,5.57-37.49,15.93s-15.67,23.88-15.93,37.49c-0.02,0.44-0.02,0.88-0.02,1.31s0.01,0.87,0.02,1.3
				c0.25,13.72,5.61,27.37,16.06,37.82l7.7,7.7c0.04-0.17,0.09-0.33,0.14-0.5c0.81-2.87,1.84-5.66,3.07-8.37
				c0.22-0.48,0.44-0.95,0.67-1.41l-4.5-4.5c-17.55-17.54-17.55-46.09,0-63.64c17.54-17.54,46.09-17.54,63.63,0l6.8,6.8l5.71,5.71
				l0.28,0.28l57.93,57.93c0.74,0.74,1.44,1.49,2.12,2.27l7.09-7.09C247.07,196.95,246.36,196.2,245.62,195.46z M147.72,115.02
				c2.53,0.59,5,1.39,7.38,2.38C152.7,116.42,150.22,115.62,147.72,115.02z M117.29,117.3c1.22-0.5,2.47-0.95,3.73-1.34
				C119.76,116.36,118.52,116.81,117.29,117.3z M125.63,114.76c1.06-0.23,2.13-0.42,3.21-0.57c1.07-0.16,2.14-0.28,3.22-0.36
				c-1.08,0.09-2.15,0.21-3.22,0.36C127.76,114.35,126.69,114.54,125.63,114.76z M92.05,187.37c-0.53-0.97-1.02-1.96-1.47-2.96
				C91.04,185.41,91.53,186.39,92.05,187.37z M88.04,149.76c0.37-1.31,0.8-2.6,1.29-3.87C88.85,147.17,88.42,148.46,88.04,149.76z
				 M88.95,180.36c-0.37-1.02-0.7-2.06-0.99-3.11C88.26,178.29,88.59,179.33,88.95,180.36z M91.55,140.87
				c0.5-0.98,1.03-1.95,1.61-2.9C92.59,138.92,92.06,139.89,91.55,140.87z M116.05,200.19l-1.22-1.22c-0.88,1.55-1.68,3.12-2.4,4.73
				c-0.22,0.48-0.43,0.97-0.62,1.45c-1.18,2.82-2.1,5.72-2.78,8.66c-0.04,0.17-0.08,0.35-0.12,0.52c-0.44,1.99-0.77,4-0.98,6.02
				l9.86,9.86c-0.22-2.35-0.24-4.72-0.07-7.07c0.01-0.2,0.03-0.39,0.05-0.59c0.26-3.25,0.88-6.47,1.84-9.6
				c0.16-0.52,0.33-1.04,0.51-1.56c0.6-1.71,1.3-3.38,2.11-5.02L116.05,200.19z M258.36,215.41l-0.23,0.23l-3.67,3.67l-2.74,2.74
				l-1.36,1.36c3.7,14.83-0.24,31.19-11.81,42.77c-12.07,12.06-29.33,15.83-44.64,11.31c-1.94-0.57-3.85-1.28-5.71-2.13
				c-0.14-0.05-0.29-0.12-0.43-0.19c-1.84-0.85-3.64-1.84-5.38-2.95c0-0.01-0.01-0.01-0.01-0.01c-0.95-0.61-1.88-1.26-2.79-1.95
				c-0.67-0.51-1.33-1.04-1.97-1.59c-0.93-0.78-1.83-1.61-2.71-2.49l-1.42-1.42l-49.34-49.35c-0.15,0.55-0.3,1.1-0.42,1.66
				c-0.7,2.98-1.06,6.06-1.06,9.2c0,0.4,0.01,0.79,0.02,1.19c0,0.22,0.01,0.45,0.02,0.67l45.12,45.12c0.83,0.83,1.68,1.63,2.55,2.39
				c0,0.01,0.01,0.01,0.01,0.01c1.67,1.47,3.4,2.82,5.2,4.05c0.03,0.03,0.07,0.05,0.11,0.08c1.88,1.28,3.82,2.44,5.82,3.46
				c20.69,10.66,46.78,7.32,64.1-9.99C261.23,257.64,265.47,234.9,258.36,215.41z M256.04,200.07c-0.5-0.7-1-1.39-1.53-2.08
				l-3.6,3.6l-0.29,0.29l-3.25,3.25l-2.52,2.52l-1.11,1.11l-3.57,3.57c0.49,0.73,0.95,1.48,1.37,2.24c1.34,2.34,2.41,4.78,3.23,7.3
				c0.08,0.22,0.15,0.45,0.22,0.68l3.9-3.9c-0.08-0.21-0.16-0.43-0.25-0.65l7.36-7.36l0.24-0.24l3.76-3.76
				C258.84,204.39,257.51,202.19,256.04,200.07z"/>
		</g>
		<g>
			<path class="st1" d="M174.91,266.18l-1.42-1.42c-0.55,0.16-1.1,0.3-1.65,0.42l2.3,2.3c0.6,0.6,1.21,1.18,1.83,1.74
				c0.55-0.17,1.11-0.35,1.65-0.55C176.69,267.89,175.79,267.06,174.91,266.18z M240.17,212.33l-45.76,45.76
				c-3.47,3.47-7.37,6.25-11.53,8.35c0.7,0.51,1.4,1.01,2.13,1.47c4.22-2.15,8.17-4.98,11.7-8.51l44.83-44.83
				C241.12,213.81,240.66,213.06,240.17,212.33z M174.91,266.18l-1.42-1.42c-0.55,0.16-1.1,0.3-1.65,0.42l2.3,2.3
				c0.6,0.6,1.21,1.18,1.83,1.74c0.55-0.17,1.11-0.35,1.65-0.55C176.69,267.89,175.79,267.06,174.91,266.18z M240.17,212.33
				l-45.76,45.76c-3.47,3.47-7.37,6.25-11.53,8.35c0.7,0.51,1.4,1.01,2.13,1.47c4.22-2.15,8.17-4.98,11.7-8.51l44.83-44.83
				C241.12,213.81,240.66,213.06,240.17,212.33z M187.69,137.53l-0.27-0.27l-5.71-5.71l-1.09-1.09l-3.51-3.51l-0.32,0.32l-5.71,5.71
				l-1.04,1.05l4.59,4.59l5.71,5.71l0.28,0.28l3.56,3.56l1.04-1.04l5.72-5.71l0.32-0.32L187.69,137.53z M273.86,116.54
				c-10.8-10.8-25.05-16.12-39.24-15.94c-14.52-0.35-29.16,5.01-40.21,16.07l-10.23,10.23l1.09,1.09l5.71,5.71l0.27,0.27
				l10.23-10.23c17.54-17.54,46.09-17.54,63.64,0c17.54,17.54,17.54,46.1,0,63.64l-10.61,10.61l-3.6,3.6l-0.29,0.29l-3.25,3.25
				l-2.52,2.52l-1.11,1.11l-3.57,3.57l-45.76,45.76c-3.47,3.47-7.37,6.25-11.53,8.35c0.7,0.51,1.4,1.01,2.13,1.47
				c0.88,0.58,1.79,1.12,2.72,1.62v0.01c1.76,0.95,3.58,1.77,5.46,2.44c0.19,0.07,0.38,0.13,0.57,0.2c3.07-2.01,5.98-4.36,8.67-7.06
				l42.56-42.57l3.9-3.9c-0.08-0.21-0.16-0.43-0.25-0.65l7.36-7.36l0.24-0.24l3.76-3.76c0.11,0.2,0.22,0.4,0.31,0.6l13.55-13.56
				C295.13,172.41,295.13,137.81,273.86,116.54z M164.36,276.78l-5.72-5.72c-10.18-0.88-20.1-5.2-27.87-12.97
				c-7.77-7.77-12.1-17.7-12.98-27.88c-0.22-2.35-0.24-4.72-0.07-7.07c0.01-0.2,0.03-0.39,0.05-0.59c0.26-3.25,0.88-6.47,1.84-9.6
				c0.16-0.52,0.33-1.04,0.51-1.56c0.6-1.71,1.3-3.38,2.11-5.02c2.12-4.31,4.96-8.34,8.54-11.92l46.34-46.34l-0.27-0.27l-5.71-5.71
				l-1.09-1.09l-46.35,46.34c-3.54,3.54-6.49,7.44-8.86,11.59c-0.88,1.55-1.68,3.12-2.4,4.73c-0.22,0.48-0.43,0.97-0.62,1.45
				c-1.18,2.82-2.1,5.72-2.78,8.66c-0.04,0.17-0.08,0.35-0.12,0.52c-0.44,1.99-0.77,4-0.98,6.02c-1.72,15.98,3.54,32.58,15.76,44.81
				c12.33,12.33,29.11,17.58,45.22,15.73c-0.02-0.01-0.04-0.03-0.06-0.05C167.3,279.58,165.8,278.22,164.36,276.78z M141.78,271.72
				c1.58,0.72,3.2,1.36,4.84,1.92C144.97,273.09,143.36,272.45,141.78,271.72z M188.2,275.36c-0.14-0.05-0.29-0.12-0.43-0.19
				c-1.84-0.85-3.64-1.84-5.38-2.95c-0.55,0.24-1.11,0.47-1.67,0.67c-0.02,0.02-0.04,0.03-0.06,0.03c-0.44,0.17-0.88,0.33-1.33,0.49
				c0.44-0.16,0.89-0.33,1.33-0.5c0.02-0.01,0.04-0.01,0.06-0.02c0.56-0.22,1.11-0.44,1.66-0.68c-0.95-0.61-1.88-1.26-2.79-1.95
				c-0.67-0.51-1.33-1.04-1.97-1.59c-0.93-0.78-1.83-1.61-2.71-2.49l-1.42-1.42c-0.55,0.16-1.1,0.3-1.65,0.42
				c-1.38,0.33-2.78,0.58-4.19,0.75c-2.05,0.26-4.12,0.36-6.19,0.3c-0.23,0-0.45-0.01-0.68-0.03l7.05,7.05
				c0.83,0.83,1.68,1.63,2.55,2.39c0.19-0.02,0.37-0.05,0.56-0.08c0.33-0.06,0.65-0.11,0.98-0.17c-0.32,0.06-0.64,0.12-0.96,0.18
				c-0.19,0.03-0.38,0.06-0.57,0.08c1.67,1.47,3.4,2.82,5.2,4.05c0.03,0.03,0.07,0.05,0.11,0.08c1.88,1.28,3.82,2.44,5.82,3.46
				c0.14-0.04,0.29-0.09,0.44-0.15c3.48-1.17,6.85-2.67,10.06-4.48c0.64-0.36,1.27-0.73,1.89-1.12
				C191.97,276.92,190.06,276.21,188.2,275.36z M177.98,273.86c-0.9,0.29-1.8,0.56-2.72,0.79
				C176.17,274.41,177.08,274.15,177.98,273.86z M174.91,266.18l-1.42-1.42c-0.55,0.16-1.1,0.3-1.65,0.42l2.3,2.3
				c0.6,0.6,1.21,1.18,1.83,1.74c0.55-0.17,1.11-0.35,1.65-0.55C176.69,267.89,175.79,267.06,174.91,266.18z M240.17,212.33
				l-45.76,45.76c-3.47,3.47-7.37,6.25-11.53,8.35c0.7,0.51,1.4,1.01,2.13,1.47c4.22-2.15,8.17-4.98,11.7-8.51l44.83-44.83
				C241.12,213.81,240.66,213.06,240.17,212.33z"/>
		</g>
	</g>
</g>
<g>
	<g>
		<path d="M254.74,217.37l-45.76,45.76c-3.47,3.47-7.37,6.25-11.53,8.35c0.7,0.51,1.4,1.01,2.13,1.47c4.22-2.15,8.17-4.98,11.7-8.51
			l44.83-44.83C255.69,218.85,255.23,218.1,254.74,217.37z M254.74,217.37l-45.76,45.76c-3.47,3.47-7.37,6.25-11.53,8.35
			c0.7,0.51,1.4,1.01,2.13,1.47c4.22-2.15,8.17-4.98,11.7-8.51l44.83-44.83C255.69,218.85,255.23,218.1,254.74,217.37z
			 M286.76,121.71c-10.39-10.39-23.93-15.75-37.57-16.07c-14.52-0.35-29.16,5.01-40.21,16.07l-10.23,10.23l1.09,1.09l5.71,5.71
			l0.27,0.27l10.23-10.23c17.54-17.54,46.09-17.54,63.64,0c17.54,17.54,17.54,46.1,0,63.64l-10.61,10.61l-3.6,3.6l-0.29,0.29
			l-3.25,3.25l-2.52,2.52l-1.11,1.11l-3.57,3.57l-45.76,45.76c-3.47,3.47-7.37,6.25-11.53,8.35c0.7,0.51,1.4,1.01,2.13,1.47
			c0.88,0.58,1.79,1.12,2.72,1.62v0.01c1.76,0.95,3.58,1.77,5.46,2.44c2.93-1.96,5.71-4.24,8.29-6.82l43.29-43.29l11.23-11.23
			l0.24-0.24l3.76-3.76l12.19-12.19C308.2,178.04,308.2,143.16,286.76,121.71z M178.93,281.82l-5.72-5.72
			c-10.18-0.88-20.1-5.2-27.87-12.97c-7.77-7.77-12.1-17.7-12.98-27.88c-0.22-2.35-0.24-4.72-0.07-7.07
			c0.01-0.2,0.03-0.39,0.05-0.59c0.26-3.25,0.88-6.47,1.84-9.6c0.16-0.52,0.33-1.04,0.51-1.56c0.6-1.71,1.3-3.38,2.11-5.02
			c2.12-4.31,4.96-8.34,8.54-11.92l46.34-46.34l-0.27-0.27l-5.71-5.71l-1.09-1.09l-46.35,46.34c-3.54,3.54-6.49,7.44-8.86,11.59
			c-0.88,1.55-1.68,3.12-2.4,4.73c-0.22,0.48-0.43,0.97-0.62,1.45c-1.18,2.82-2.1,5.72-2.78,8.66c-0.04,0.17-0.08,0.35-0.12,0.52
			c-0.44,1.99-0.77,4-0.98,6.02c-1.72,15.98,3.54,32.58,15.76,44.81c12.33,12.33,29.11,17.58,45.22,15.73
			c-0.02-0.01-0.04-0.03-0.06-0.05C181.87,284.62,180.37,283.26,178.93,281.82z M254.74,217.37l-45.76,45.76
			c-3.47,3.47-7.37,6.25-11.53,8.35c0.7,0.51,1.4,1.01,2.13,1.47c4.22-2.15,8.17-4.98,11.7-8.51l44.83-44.83
			C255.69,218.85,255.23,218.1,254.74,217.37z"/>
	</g>
	<g>
		<path d="M260.19,200.5l-57.93-57.93l-0.27-0.27l-5.71-5.71l-1.09-1.09l-3.51-3.51l-2.2-2.2c-10.45-10.45-24.1-15.81-37.82-16.06
			c-0.43-0.01-0.87-0.02-1.3-0.02c-0.44,0-0.88,0-1.31,0.02c-13.57,0.38-27.03,5.73-37.36,16.06
			c-10.33,10.34-15.68,23.79-16.06,37.36c-0.02,0.44-0.02,0.88-0.02,1.31s0.01,0.87,0.02,1.3c0.25,13.72,5.61,27.37,16.06,37.82
			l7.7,7.7c0.04-0.17,0.09-0.33,0.14-0.5c0.81-2.87,1.84-5.66,3.07-8.37c0.22-0.48,0.44-0.95,0.67-1.41l-4.5-4.5
			c-17.55-17.54-17.55-46.09,0-63.64c17.54-17.54,46.09-17.54,63.63,0l6.8,6.8l5.71,5.71l0.28,0.28l57.93,57.93
			c0.74,0.74,1.44,1.49,2.12,2.27l7.09-7.09C261.64,201.99,260.93,201.24,260.19,200.5z M272.93,220.45l-0.23,0.23l-3.67,3.67
			l-2.74,2.74l-1.36,1.36c3.7,14.83-0.24,31.19-11.81,42.77c-12.07,12.06-29.33,15.83-44.64,11.31c-1.94-0.57-3.85-1.28-5.71-2.13
			c-0.14-0.05-0.29-0.12-0.43-0.19c-1.84-0.85-3.64-1.84-5.38-2.95c0-0.01-0.01-0.01-0.01-0.01c-0.95-0.61-1.88-1.26-2.79-1.95
			c-0.67-0.51-1.33-1.04-1.97-1.59c-0.93-0.78-1.83-1.61-2.71-2.49l-1.42-1.42l-49.34-49.35c-0.15,0.55-0.3,1.1-0.42,1.66
			c-0.7,2.98-1.06,6.06-1.06,9.2c0,0.4,0.01,0.79,0.02,1.19c0,0.22,0.01,0.45,0.02,0.67l45.12,45.12c0.83,0.83,1.68,1.63,2.55,2.39
			c0,0.01,0.01,0.01,0.01,0.01c1.67,1.47,3.4,2.82,5.2,4.05c0.03,0.03,0.07,0.05,0.11,0.08c1.88,1.28,3.82,2.44,5.82,3.46
			c20.69,10.66,46.78,7.32,64.1-9.99C275.8,262.68,280.04,239.94,272.93,220.45z"/>
	</g>
	<g class="st0">
		<path class="st1" d="M196.28,136.59l-0.32,0.32l-5.72,5.71l-1.04,1.04l5.71,5.71l1.05-1.04l5.71-5.71l0.32-0.32L196.28,136.59z
			 M288.43,121.58c-10.8-10.8-25.05-16.12-39.24-15.94c-13.74,0.16-27.45,5.47-37.91,15.94l-11.44,11.45l5.71,5.71L217,127.29
			c8.77-8.78,20.44-13.61,32.86-13.61c12.41,0,24.08,4.83,32.85,13.61c18.12,18.12,18.12,47.6,0,65.72l-71.43,71.43
			c-3.53,3.53-7.48,6.36-11.7,8.51c0.88,0.58,1.79,1.12,2.72,1.62v0.01c1.76,0.95,3.58,1.77,5.46,2.44c0.19,0.07,0.38,0.13,0.57,0.2
			c3.07-2.01,5.98-4.36,8.67-7.06l42.56-42.57l3.9-3.9c-0.08-0.21-0.16-0.43-0.25-0.65l7.36-7.36l0.24-0.24l3.76-3.76
			c0.11,0.2,0.22,0.4,0.31,0.6l13.55-13.56C309.7,177.45,309.7,142.85,288.43,121.58z M175.01,277.9
			c-10.74-0.78-21.26-5.27-29.45-13.46s-12.68-18.71-13.46-29.45c-0.18-2.32-0.17-4.66,0.01-6.99c0.01-0.2,0.03-0.4,0.05-0.6
			c0.29-3.23,0.91-6.44,1.87-9.56c0.16-0.52,0.33-1.04,0.51-1.56c0.6-1.71,1.29-3.4,2.09-5.04c2.2-4.53,5.18-8.77,8.93-12.52
			l45.85-45.84l-5.71-5.71l-45.85,45.84c-3.69,3.68-6.77,7.79-9.23,12.22c-0.86,1.55-1.64,3.15-2.34,4.78
			c-0.21,0.49-0.41,0.98-0.61,1.47c-1.12,2.85-2.01,5.79-2.63,8.81c-0.04,0.17-0.08,0.35-0.11,0.53c-0.41,2.02-0.7,4.07-0.86,6.14
			c-0.14,1.53-0.2,3.07-0.2,4.62c0,14.58,5.67,28.27,15.98,38.58c10.63,10.63,24.6,15.95,38.57,15.95c1.67,0,3.34-0.08,5-0.23
			c-1.55-1.26-3.05-2.62-4.49-4.06L175.01,277.9z M202.34,280.21c-1.84-0.85-3.64-1.84-5.38-2.95c0-0.01-0.01-0.01-0.01-0.01
			c-0.95-0.61-1.88-1.26-2.79-1.95c-0.56,0.2-1.13,0.4-1.71,0.58c-3.21,1.01-6.52,1.67-9.85,1.96c-0.2,0.02-0.4,0.04-0.6,0.05
			l0.4,0.4c0.83,0.83,1.68,1.63,2.55,2.39c0,0.01,0.01,0.01,0.01,0.01c1.67,1.47,3.4,2.82,5.2,4.05c0.03,0.03,0.07,0.05,0.11,0.08
			c0.17-0.04,0.34-0.08,0.51-0.12c3.45-0.8,6.85-1.93,10.12-3.41c0.63-0.28,1.25-0.58,1.87-0.89
			C202.63,280.35,202.48,280.28,202.34,280.21z"/>
	</g>
	<g class="st0">
		<path class="st1" d="M260.14,201.09l-71.43-71.43c-10.25-10.25-23.59-15.55-37.05-15.93c-0.43-0.01-0.87-0.02-1.3-0.02
			c-0.44,0-0.88,0-1.31,0.02c-13.61,0.26-27.13,5.57-37.49,15.93s-15.67,23.88-15.93,37.49c-0.02,0.44-0.02,0.88-0.02,1.31
			s0.01,0.87,0.02,1.3c0.38,13.45,5.69,26.81,15.93,37.05l7.97,7.97c0.81-2.87,1.84-5.66,3.07-8.37l-5.32-5.32
			c-18.12-18.12-18.12-47.6,0-65.72c18.12-18.12,47.6-18.12,65.72,0l6.16,6.16l1.08,1.09l5.72,5.71l0.27,0.27l3.56,3.57l54.64,54.64
			c0.65,0.65,1.27,1.3,1.87,1.98l5.72-5.72C261.42,202.4,260.79,201.74,260.14,201.09z M134.03,217.84l-6.36-6.36l-1.29-1.29
			c-1.18,2.82-2.1,5.72-2.78,8.66l1.44,1.44l7.12,7.11l0.18,0.19c0.26-3.25,0.88-6.47,1.84-9.6L134.03,217.84z M272.7,220.68
			l-3.67,3.67l-2.74,2.74c4.38,15.65,0.42,33.15-11.86,45.43c-12.92,12.92-31.61,16.63-47.84,11.13c-1.94-0.66-3.84-1.45-5.69-2.36
			c-0.12-0.07-0.24-0.13-0.36-0.19c-1.82-0.92-3.6-1.97-5.31-3.14v-0.01c-0.95-0.65-1.88-1.34-2.78-2.07
			c-0.65-0.52-1.29-1.06-1.91-1.62c-0.62-0.56-1.23-1.14-1.83-1.74l-2.3-2.3l-48.11-48.11c-0.7,2.98-1.06,6.06-1.06,9.2
			c0,0.4,0.01,0.79,0.02,1.19l45.34,45.34l0.4,0.4c0.82,0.82,1.65,1.61,2.51,2.36c0.01,0.01,0.01,0.01,0.02,0.01
			c1.64,1.46,3.36,2.79,5.13,4.01c0.04,0.03,0.08,0.05,0.12,0.08c1.86,1.27,3.78,2.42,5.75,3.43c7.82,4.04,16.43,6.06,25.04,6.06
			c13.97,0,27.94-5.32,38.57-15.95C275.68,262.7,279.86,240.05,272.7,220.68z M266.7,209.02c-0.48-0.71-0.98-1.41-1.51-2.1
			l-3.25,3.25l-2.52,2.52c0.5,0.71,0.99,1.43,1.45,2.16c1.4,2.23,2.6,4.55,3.59,6.94l6.11-6.11
			C269.45,213.39,268.16,211.16,266.7,209.02z"/>
	</g>
</g>
</svg>
