<?xml version="1.0" encoding="utf-8"?>
<!-- Generator: Adobe Illustrator 27.8.1, SVG Export Plug-In . SVG Version: 6.00 Build 0)  -->
<svg version="1.1" id="Layer_1" xmlns="http://www.w3.org/2000/svg" xmlns:xlink="http://www.w3.org/1999/xlink" x="0px" y="0px"
	 viewBox="0 0 207.23 190.31" style="enable-background:new 0 0 207.23 190.31;" xml:space="preserve">
<style type="text/css">
	.st0{display:none;}
	.st1{display:inline;fill:#FFFFFF;}
</style>
<g class="st0">
	<g>
		<g>
			<path class="st1" d="M150.01-12.66L92.08-70.59l-0.27-0.27l-5.71-5.71l-1.09-1.09l-3.51-3.51l-2.2-2.2
				C68.85-93.82,55.2-99.18,41.48-99.43c-0.43-0.01-0.87-0.02-1.3-0.02c-0.44,0-0.88,0-1.31,0.02C25.26-99.17,11.74-93.86,1.38-83.5
				s-15.67,23.88-15.93,37.49c-0.02,0.44-0.02,0.88-0.02,1.31s0.01,0.87,0.02,1.3C-14.3-29.68-8.94-16.03,1.51-5.58l7.7,7.7
				c0.04-0.17,0.09-0.33,0.14-0.5c0.81-2.87,1.84-5.66,3.07-8.37c0.22-0.48,0.44-0.95,0.67-1.41l-4.5-4.5
				C-8.96-30.2-8.96-58.75,8.59-76.3c17.54-17.54,46.09-17.54,63.63,0l6.8,6.8l5.71,5.71l0.28,0.28l57.93,57.93
				c0.74,0.74,1.44,1.49,2.12,2.27l7.09-7.09C151.46-11.17,150.75-11.92,150.01-12.66z M52.11-93.1c2.53,0.59,5,1.39,7.38,2.38
				C57.09-91.7,54.61-92.5,52.11-93.1z M21.68-90.82c1.22-0.5,2.47-0.95,3.73-1.34C24.15-91.76,22.91-91.31,21.68-90.82z
				 M30.02-93.36c1.06-0.23,2.13-0.42,3.21-0.57c1.07-0.16,2.14-0.28,3.22-0.36c-1.08,0.09-2.15,0.21-3.22,0.36
				C32.15-93.77,31.08-93.58,30.02-93.36z M-3.56-20.75c-0.53-0.97-1.02-1.96-1.47-2.96C-4.57-22.71-4.08-21.73-3.56-20.75z
				 M-7.57-58.36c0.37-1.31,0.8-2.6,1.29-3.87C-6.76-60.95-7.19-59.66-7.57-58.36z M-6.66-27.76c-0.37-1.02-0.7-2.06-0.99-3.11
				C-7.35-29.83-7.02-28.79-6.66-27.76z M-4.06-67.25c0.5-0.98,1.03-1.95,1.61-2.9C-3.02-69.2-3.55-68.23-4.06-67.25z M20.44-7.93
				l-1.22-1.22c-0.88,1.55-1.68,3.12-2.4,4.73c-0.22,0.48-0.43,0.97-0.62,1.45c-1.18,2.82-2.1,5.72-2.78,8.66
				c-0.04,0.17-0.08,0.35-0.12,0.52c-0.44,1.99-0.77,4-0.98,6.02l9.86,9.86c-0.22-2.35-0.24-4.72-0.07-7.07
				c0.01-0.2,0.03-0.39,0.05-0.59c0.26-3.25,0.88-6.47,1.84-9.6c0.16-0.52,0.33-1.04,0.51-1.56c0.6-1.71,1.3-3.38,2.11-5.02
				L20.44-7.93z M162.75,7.29l-0.23,0.23l-3.67,3.67l-2.74,2.74l-1.36,1.36c3.7,14.83-0.24,31.19-11.81,42.77
				c-12.07,12.06-29.33,15.83-44.64,11.31c-1.94-0.57-3.85-1.28-5.71-2.13c-0.14-0.05-0.29-0.12-0.43-0.19
				c-1.84-0.85-3.64-1.84-5.38-2.95c0-0.01-0.01-0.01-0.01-0.01c-0.95-0.61-1.88-1.26-2.79-1.95c-0.67-0.51-1.33-1.04-1.97-1.59
				c-0.93-0.78-1.83-1.61-2.71-2.49l-1.42-1.42L28.54,7.29c-0.15,0.55-0.3,1.1-0.42,1.66c-0.7,2.98-1.06,6.06-1.06,9.2
				c0,0.4,0.01,0.79,0.02,1.19c0,0.22,0.01,0.45,0.02,0.67l45.12,45.12c0.83,0.83,1.68,1.63,2.55,2.39c0,0.01,0.01,0.01,0.01,0.01
				c1.67,1.47,3.4,2.82,5.2,4.05c0.03,0.03,0.07,0.05,0.11,0.08c1.88,1.28,3.82,2.44,5.82,3.46c20.69,10.66,46.78,7.32,64.1-9.99
				C165.62,49.52,169.86,26.78,162.75,7.29z M160.43-8.05c-0.5-0.7-1-1.39-1.53-2.08l-3.6,3.6l-0.29,0.29l-3.25,3.25l-2.52,2.52
				l-1.11,1.11l-3.57,3.57c0.49,0.73,0.95,1.48,1.37,2.24c1.34,2.34,2.41,4.78,3.23,7.3c0.08,0.22,0.15,0.45,0.22,0.68l3.9-3.9
				c-0.08-0.21-0.16-0.43-0.25-0.65l7.36-7.36l0.24-0.24l3.76-3.76C163.23-3.73,161.9-5.93,160.43-8.05z"/>
		</g>
		<g>
			<path class="st1" d="M79.3,58.06l-1.42-1.42c-0.55,0.16-1.1,0.3-1.65,0.42l2.3,2.3c0.6,0.6,1.21,1.18,1.83,1.74
				c0.55-0.17,1.11-0.35,1.65-0.55C81.08,59.77,80.18,58.94,79.3,58.06z M144.56,4.21L98.8,49.97c-3.47,3.47-7.37,6.25-11.53,8.35
				c0.7,0.51,1.4,1.01,2.13,1.47c4.22-2.15,8.17-4.98,11.7-8.51l44.83-44.83C145.51,5.69,145.05,4.94,144.56,4.21z M79.3,58.06
				l-1.42-1.42c-0.55,0.16-1.1,0.3-1.65,0.42l2.3,2.3c0.6,0.6,1.21,1.18,1.83,1.74c0.55-0.17,1.11-0.35,1.65-0.55
				C81.08,59.77,80.18,58.94,79.3,58.06z M144.56,4.21L98.8,49.97c-3.47,3.47-7.37,6.25-11.53,8.35c0.7,0.51,1.4,1.01,2.13,1.47
				c4.22-2.15,8.17-4.98,11.7-8.51l44.83-44.83C145.51,5.69,145.05,4.94,144.56,4.21z M92.08-70.59l-0.27-0.27l-5.71-5.71
				l-1.09-1.09l-3.51-3.51l-0.32,0.32l-5.71,5.71l-1.04,1.05l4.59,4.59l5.71,5.71l0.28,0.28l3.56,3.56l1.04-1.04l5.72-5.71
				l0.32-0.32L92.08-70.59z M178.25-91.58c-10.8-10.8-25.05-16.12-39.24-15.94c-14.52-0.35-29.16,5.01-40.21,16.07L88.57-81.22
				l1.09,1.09l5.71,5.71l0.27,0.27l10.23-10.23c17.54-17.54,46.09-17.54,63.64,0c17.54,17.54,17.54,46.1,0,63.64L158.9-10.13
				l-3.6,3.6l-0.29,0.29l-3.25,3.25l-2.52,2.52l-1.11,1.11l-3.57,3.57L98.8,49.97c-3.47,3.47-7.37,6.25-11.53,8.35
				c0.7,0.51,1.4,1.01,2.13,1.47c0.88,0.58,1.79,1.12,2.72,1.62v0.01c1.76,0.95,3.58,1.77,5.46,2.44c0.19,0.07,0.38,0.13,0.57,0.2
				c3.07-2.01,5.98-4.36,8.67-7.06l42.56-42.57l3.9-3.9c-0.08-0.21-0.16-0.43-0.25-0.65l7.36-7.36l0.24-0.24l3.76-3.76
				c0.11,0.2,0.22,0.4,0.31,0.6l13.55-13.56C199.52-35.71,199.52-70.31,178.25-91.58z M68.75,68.66l-5.72-5.72
				c-10.18-0.88-20.1-5.2-27.87-12.97c-7.77-7.77-12.1-17.7-12.98-27.88c-0.22-2.35-0.24-4.72-0.07-7.07
				c0.01-0.2,0.03-0.39,0.05-0.59c0.26-3.25,0.88-6.47,1.84-9.6c0.16-0.52,0.33-1.04,0.51-1.56c0.6-1.71,1.3-3.38,2.11-5.02
				c2.12-4.31,4.96-8.34,8.54-11.92L81.5-60.01l-0.27-0.27l-5.71-5.71l-1.09-1.09L28.08-20.74c-3.54,3.54-6.49,7.44-8.86,11.59
				c-0.88,1.55-1.68,3.12-2.4,4.73c-0.22,0.48-0.43,0.97-0.62,1.45c-1.18,2.82-2.1,5.72-2.78,8.66c-0.04,0.17-0.08,0.35-0.12,0.52
				c-0.44,1.99-0.77,4-0.98,6.02c-1.72,15.98,3.54,32.58,15.76,44.81C40.41,69.37,57.19,74.62,73.3,72.77
				c-0.02-0.01-0.04-0.03-0.06-0.05C71.69,71.46,70.19,70.1,68.75,68.66z M46.17,63.6c1.58,0.72,3.2,1.36,4.84,1.92
				C49.36,64.97,47.75,64.33,46.17,63.6z M92.59,67.24c-0.14-0.05-0.29-0.12-0.43-0.19c-1.84-0.85-3.64-1.84-5.38-2.95
				c-0.55,0.24-1.11,0.47-1.67,0.67c-0.02,0.02-0.04,0.03-0.06,0.03c-0.44,0.17-0.88,0.33-1.33,0.49c0.44-0.16,0.89-0.33,1.33-0.5
				c0.02-0.01,0.04-0.01,0.06-0.02c0.56-0.22,1.11-0.44,1.66-0.68c-0.95-0.61-1.88-1.26-2.79-1.95c-0.67-0.51-1.33-1.04-1.97-1.59
				c-0.93-0.78-1.83-1.61-2.71-2.49l-1.42-1.42c-0.55,0.16-1.1,0.3-1.65,0.42c-1.38,0.33-2.78,0.58-4.19,0.75
				c-2.05,0.26-4.12,0.36-6.19,0.3c-0.23,0-0.45-0.01-0.68-0.03l7.05,7.05c0.83,0.83,1.68,1.63,2.55,2.39
				c0.19-0.02,0.37-0.05,0.56-0.08c0.33-0.06,0.65-0.11,0.98-0.17c-0.32,0.06-0.64,0.12-0.96,0.18c-0.19,0.03-0.38,0.06-0.57,0.08
				c1.67,1.47,3.4,2.82,5.2,4.05c0.03,0.03,0.07,0.05,0.11,0.08c1.88,1.28,3.82,2.44,5.82,3.46c0.14-0.04,0.29-0.09,0.44-0.15
				c3.48-1.17,6.85-2.67,10.06-4.48c0.64-0.36,1.27-0.73,1.89-1.12C96.36,68.8,94.45,68.09,92.59,67.24z M82.37,65.74
				c-0.9,0.29-1.8,0.56-2.72,0.79C80.56,66.29,81.47,66.03,82.37,65.74z M79.3,58.06l-1.42-1.42c-0.55,0.16-1.1,0.3-1.65,0.42
				l2.3,2.3c0.6,0.6,1.21,1.18,1.83,1.74c0.55-0.17,1.11-0.35,1.65-0.55C81.08,59.77,80.18,58.94,79.3,58.06z M144.56,4.21
				L98.8,49.97c-3.47,3.47-7.37,6.25-11.53,8.35c0.7,0.51,1.4,1.01,2.13,1.47c4.22-2.15,8.17-4.98,11.7-8.51l44.83-44.83
				C145.51,5.69,145.05,4.94,144.56,4.21z"/>
		</g>
	</g>
</g>
<g>
	<g>
		<path d="M159.13,111.75l-45.76,45.76c-3.47,3.47-7.37,6.25-11.53,8.35c0.7,0.51,1.4,1.01,2.13,1.47c4.22-2.15,8.17-4.98,11.7-8.51
			l44.83-44.83C160.08,113.23,159.62,112.48,159.13,111.75z M159.13,111.75l-45.76,45.76c-3.47,3.47-7.37,6.25-11.53,8.35
			c0.7,0.51,1.4,1.01,2.13,1.47c4.22-2.15,8.17-4.98,11.7-8.51l44.83-44.83C160.08,113.23,159.62,112.48,159.13,111.75z
			 M191.15,16.09C180.76,5.7,167.22,0.34,153.58,0.02c-14.52-0.35-29.16,5.01-40.21,16.07l-10.23,10.23l1.09,1.09l5.71,5.71
			l0.27,0.27l10.23-10.23c17.54-17.54,46.09-17.54,63.64,0c17.54,17.54,17.54,46.1,0,63.64l-10.61,10.61l-3.6,3.6l-0.29,0.29
			l-3.25,3.25l-2.52,2.52l-1.11,1.11l-3.57,3.57l-45.76,45.76c-3.47,3.47-7.37,6.25-11.53,8.35c0.7,0.51,1.4,1.01,2.13,1.47
			c0.88,0.58,1.79,1.12,2.72,1.62v0.01c1.76,0.95,3.58,1.77,5.46,2.44c2.93-1.96,5.71-4.24,8.29-6.82l43.29-43.29l11.23-11.23
			l0.24-0.24l3.76-3.76l12.19-12.19C212.59,72.42,212.59,37.54,191.15,16.09z M83.32,176.2l-5.72-5.72
			c-10.18-0.88-20.1-5.2-27.87-12.97c-7.77-7.77-12.1-17.7-12.98-27.88c-0.22-2.35-0.24-4.72-0.07-7.07
			c0.01-0.2,0.03-0.39,0.05-0.59c0.26-3.25,0.88-6.47,1.84-9.6c0.16-0.52,0.33-1.04,0.51-1.56c0.6-1.71,1.3-3.38,2.11-5.02
			c2.12-4.31,4.96-8.34,8.54-11.92l46.34-46.34l-0.27-0.27l-5.71-5.71L89,40.46L42.65,86.8c-3.54,3.54-6.49,7.44-8.86,11.59
			c-0.88,1.55-1.68,3.12-2.4,4.73c-0.22,0.48-0.43,0.97-0.62,1.45c-1.18,2.82-2.1,5.72-2.78,8.66c-0.04,0.17-0.08,0.35-0.12,0.52
			c-0.44,1.99-0.77,4-0.98,6.02c-1.72,15.98,3.54,32.58,15.76,44.81c12.33,12.33,29.11,17.58,45.22,15.73
			c-0.02-0.01-0.04-0.03-0.06-0.05C86.26,179,84.76,177.64,83.32,176.2z M159.13,111.75l-45.76,45.76
			c-3.47,3.47-7.37,6.25-11.53,8.35c0.7,0.51,1.4,1.01,2.13,1.47c4.22-2.15,8.17-4.98,11.7-8.51l44.83-44.83
			C160.08,113.23,159.62,112.48,159.13,111.75z"/>
	</g>
	<g>
		<path d="M164.58,94.88l-57.93-57.93l-0.27-0.27l-5.71-5.71l-1.09-1.09l-3.51-3.51l-2.2-2.2C83.42,13.72,69.77,8.36,56.05,8.11
			c-0.43-0.01-0.87-0.02-1.3-0.02c-0.44,0-0.88,0-1.31,0.02c-13.57,0.38-27.03,5.73-37.36,16.06C5.75,34.51,0.4,47.96,0.02,61.53
			C0,61.97,0,62.41,0,62.84s0.01,0.87,0.02,1.3c0.25,13.72,5.61,27.37,16.06,37.82l7.7,7.7c0.04-0.17,0.09-0.33,0.14-0.5
			c0.81-2.87,1.84-5.66,3.07-8.37c0.22-0.48,0.44-0.95,0.67-1.41l-4.5-4.5c-17.55-17.54-17.55-46.09,0-63.64
			c17.54-17.54,46.09-17.54,63.63,0l6.8,6.8l5.71,5.71l0.28,0.28l57.93,57.93c0.74,0.74,1.44,1.49,2.12,2.27l7.09-7.09
			C166.03,96.37,165.32,95.62,164.58,94.88z M177.32,114.83l-0.23,0.23l-3.67,3.67l-2.74,2.74l-1.36,1.36
			c3.7,14.83-0.24,31.19-11.81,42.77c-12.07,12.06-29.33,15.83-44.64,11.31c-1.94-0.57-3.85-1.28-5.71-2.13
			c-0.14-0.05-0.29-0.12-0.43-0.19c-1.84-0.85-3.64-1.84-5.38-2.95c0-0.01-0.01-0.01-0.01-0.01c-0.95-0.61-1.88-1.26-2.79-1.95
			c-0.67-0.51-1.33-1.04-1.97-1.59c-0.93-0.78-1.83-1.61-2.71-2.49l-1.42-1.42l-49.34-49.35c-0.15,0.55-0.3,1.1-0.42,1.66
			c-0.7,2.98-1.06,6.06-1.06,9.2c0,0.4,0.01,0.79,0.02,1.19c0,0.22,0.01,0.45,0.02,0.67l45.12,45.12c0.83,0.83,1.68,1.63,2.55,2.39
			c0,0.01,0.01,0.01,0.01,0.01c1.67,1.47,3.4,2.82,5.2,4.05c0.03,0.03,0.07,0.05,0.11,0.08c1.88,1.28,3.82,2.44,5.82,3.46
			c20.69,10.66,46.78,7.32,64.1-9.99C180.19,157.06,184.43,134.32,177.32,114.83z"/>
	</g>
	<g class="st0">
		<path class="st1" d="M100.67,30.97l-0.32,0.32L94.63,37l-1.04,1.04l5.71,5.71l1.05-1.04l5.71-5.71l0.32-0.32L100.67,30.97z
			 M192.82,15.96c-10.8-10.8-25.05-16.12-39.24-15.94c-13.74,0.16-27.45,5.47-37.91,15.94l-11.44,11.45l5.71,5.71l11.45-11.45
			c8.77-8.78,20.44-13.61,32.86-13.61c12.41,0,24.08,4.83,32.85,13.61c18.12,18.12,18.12,47.6,0,65.72l-71.43,71.43
			c-3.53,3.53-7.48,6.36-11.7,8.51c0.88,0.58,1.79,1.12,2.72,1.62v0.01c1.76,0.95,3.58,1.77,5.46,2.44c0.19,0.07,0.38,0.13,0.57,0.2
			c3.07-2.01,5.98-4.36,8.67-7.06l42.56-42.57l3.9-3.9c-0.08-0.21-0.16-0.43-0.25-0.65l7.36-7.36l0.24-0.24l3.76-3.76
			c0.11,0.2,0.22,0.4,0.31,0.6l13.55-13.56C214.09,71.83,214.09,37.23,192.82,15.96z M79.4,172.28
			c-10.74-0.78-21.26-5.27-29.45-13.46s-12.68-18.71-13.46-29.45c-0.18-2.32-0.17-4.66,0.01-6.99c0.01-0.2,0.03-0.4,0.05-0.6
			c0.29-3.23,0.91-6.44,1.87-9.56c0.16-0.52,0.33-1.04,0.51-1.56c0.6-1.71,1.29-3.4,2.09-5.04c2.2-4.53,5.18-8.77,8.93-12.52
			L95.8,47.26l-5.71-5.71L44.24,87.39c-3.69,3.68-6.77,7.79-9.23,12.22c-0.86,1.55-1.64,3.15-2.34,4.78
			c-0.21,0.49-0.41,0.98-0.61,1.47c-1.12,2.85-2.01,5.79-2.63,8.81c-0.04,0.17-0.08,0.35-0.11,0.53c-0.41,2.02-0.7,4.07-0.86,6.14
			c-0.14,1.53-0.2,3.07-0.2,4.62c0,14.58,5.67,28.27,15.98,38.58c10.63,10.63,24.6,15.95,38.57,15.95c1.67,0,3.34-0.08,5-0.23
			c-1.55-1.26-3.05-2.62-4.49-4.06L79.4,172.28z M106.73,174.59c-1.84-0.85-3.64-1.84-5.38-2.95c0-0.01-0.01-0.01-0.01-0.01
			c-0.95-0.61-1.88-1.26-2.79-1.95c-0.56,0.2-1.13,0.4-1.71,0.58c-3.21,1.01-6.52,1.67-9.85,1.96c-0.2,0.02-0.4,0.04-0.6,0.05
			l0.4,0.4c0.83,0.83,1.68,1.63,2.55,2.39c0,0.01,0.01,0.01,0.01,0.01c1.67,1.47,3.4,2.82,5.2,4.05c0.03,0.03,0.07,0.05,0.11,0.08
			c0.17-0.04,0.34-0.08,0.51-0.12c3.45-0.8,6.85-1.93,10.12-3.41c0.63-0.28,1.25-0.58,1.87-0.89
			C107.02,174.73,106.87,174.66,106.73,174.59z"/>
	</g>
	<g class="st0">
		<path class="st1" d="M164.53,95.47L93.1,24.04C82.85,13.79,69.51,8.49,56.05,8.11c-0.43-0.01-0.87-0.02-1.3-0.02
			c-0.44,0-0.88,0-1.31,0.02c-13.61,0.26-27.13,5.57-37.49,15.93S0.28,47.92,0.02,61.53C0,61.97,0,62.41,0,62.84s0.01,0.87,0.02,1.3
			c0.38,13.45,5.69,26.81,15.93,37.05l7.97,7.97c0.81-2.87,1.84-5.66,3.07-8.37l-5.32-5.32c-18.12-18.12-18.12-47.6,0-65.72
			c18.12-18.12,47.6-18.12,65.72,0l6.16,6.16L94.63,37l5.72,5.71l0.27,0.27l3.56,3.57l54.64,54.64c0.65,0.65,1.27,1.3,1.87,1.98
			l5.72-5.72C165.81,96.78,165.18,96.12,164.53,95.47z M38.42,112.22l-6.36-6.36l-1.29-1.29c-1.18,2.82-2.1,5.72-2.78,8.66
			l1.44,1.44l7.12,7.11l0.18,0.19c0.26-3.25,0.88-6.47,1.84-9.6L38.42,112.22z M177.09,115.06l-3.67,3.67l-2.74,2.74
			c4.38,15.65,0.42,33.15-11.86,45.43c-12.92,12.92-31.61,16.63-47.84,11.13c-1.94-0.66-3.84-1.45-5.69-2.36
			c-0.12-0.07-0.24-0.13-0.36-0.19c-1.82-0.92-3.6-1.97-5.31-3.14v-0.01c-0.95-0.65-1.88-1.34-2.78-2.07
			c-0.65-0.52-1.29-1.06-1.91-1.62c-0.62-0.56-1.23-1.14-1.83-1.74l-2.3-2.3l-48.11-48.11c-0.7,2.98-1.06,6.06-1.06,9.2
			c0,0.4,0.01,0.79,0.02,1.19l45.34,45.34l0.4,0.4c0.82,0.82,1.65,1.61,2.51,2.36c0.01,0.01,0.01,0.01,0.02,0.01
			c1.64,1.46,3.36,2.79,5.13,4.01c0.04,0.03,0.08,0.05,0.12,0.08c1.86,1.27,3.78,2.42,5.75,3.43c7.82,4.04,16.43,6.06,25.04,6.06
			c13.97,0,27.94-5.32,38.57-15.95C180.07,157.08,184.25,134.43,177.09,115.06z M171.09,103.4c-0.48-0.71-0.98-1.41-1.51-2.1
			l-3.25,3.25l-2.52,2.52c0.5,0.71,0.99,1.43,1.45,2.16c1.4,2.23,2.6,4.55,3.59,6.94l6.11-6.11
			C173.84,107.77,172.55,105.54,171.09,103.4z"/>
	</g>
</g>
</svg>
