<?xml version="1.0" encoding="UTF-8"?>
<svg id="Layer_1" data-name="Layer 1" xmlns="http://www.w3.org/2000/svg" viewBox="0 0 498.93 797.61">
  <defs>
    <style>
      .cls-1 {
        fill: #231f20;
        stroke-width: 0px;
      }
    </style>
  </defs>
  <g>
    <path class="cls-1" d="m.58,573.74v-208.01h29.3v208.01H.58Zm25.78-64.45v-27.83h35.45c16.01,0,28.12-3.98,36.33-11.94,8.2-7.96,12.3-19.6,12.3-34.94,0-13.48-4.1-23.68-12.3-30.62-8.2-6.93-20.31-10.4-36.33-10.4H26.95v-27.83h34.86c26.07,0,45.82,5.81,59.25,17.43,13.43,11.62,20.14,28.76,20.14,51.42,0,24.51-6.72,43.09-20.14,55.74-13.43,12.65-33.18,18.97-59.25,18.97H26.36Z"/>
    <path class="cls-1" d="m159.52,573.74l60.06-208.01h42.48l60.06,208.01h-30.76l-49.22-182.81h-2.64l-49.22,182.81h-30.76Zm27.83-50.68v-27.83h105.47v27.83h-105.47Z"/>
    <path class="cls-1" d="m349.22,573.74v-208.01h29.3v208.01h-29.3Zm27.25-79.1v-27.83h44.24c11.62,0,20.68-3.08,27.17-9.23,6.49-6.15,9.74-14.8,9.74-25.93,0-12.21-3.25-21.61-9.74-28.2-6.5-6.59-15.55-9.89-27.17-9.89h-43.65l-3.52-27.83h47.17c21.58,0,38.25,5.47,50.02,16.41,11.77,10.94,17.65,26.47,17.65,46.58s-5.88,37.11-17.65,48.63c-11.77,11.52-28.44,17.29-50.02,17.29h-44.24Zm84.38,79.1l-46.58-97.85h32.23l49.51,97.85h-35.16Z"/>
  </g>
  <path class="cls-1" d="m0,272.21h498.78v29.3H0v-29.3Zm.15-54.2h27.83v137.7H.15v-137.7Zm235.33,13.18h27.83v111.33h-27.83v-111.33Zm235.47-13.18h27.83v137.7h-27.83v-137.7Z"/>
  <g>
    <path class="cls-1" d="m0,208.01V0h28.12v208.01H0Zm55.66-84.96L31.93,36.91h-8.5V0h20.8l23.73,89.36h1.17l2.93,33.69h-16.41Zm8.5,0l4.39-33.69h1.76L94.04,0h20.8v36.91h-8.5l-23.73,86.13h-18.46Zm46,84.96V0h28.12v208.01h-28.12Z"/>
    <path class="cls-1" d="m180.47,208.01V0h29.3v208.01h-29.3Zm0-180.18V0h137.7v27.83h-137.7Zm0,89.94v-27.83h111.33v27.83h-111.33Zm0,90.23v-27.83h137.7v27.83h-137.7Z"/>
    <path class="cls-1" d="m353.32,208.01V0h29.3v208.01h-29.3Zm27.25,0v-27.83h23.14c21.39,0,37.47-6.1,48.27-18.31,10.79-12.21,16.19-30.52,16.19-54.93,0-26.46-5.4-46.26-16.19-59.4-10.79-13.13-26.88-19.7-48.27-19.7h-22.56l-3.52-27.83h26.07c63.48,0,95.21,35.65,95.21,106.93,0,67.38-31.74,101.07-95.21,101.07h-23.14Z"/>
  </g>
  <g>
    <path class="cls-1" d="m.58,614.5v-27.83h152.34v27.83H.58Zm61.52,180.18v-208.01h29.3v208.01h-29.3Z"/>
    <path class="cls-1" d="m217.97,797.61c-51.17,0-76.76-35.16-76.76-105.47s25.58-108.4,76.76-108.4,76.76,36.13,76.76,108.4-25.59,105.47-76.76,105.47Zm0-26.95c30.66,0,46-26.17,46-78.52s-15.33-81.45-46-81.45-46,27.15-46,81.45,15.33,78.52,46,78.52Z"/>
    <path class="cls-1" d="m366.5,797.61c-44.53,0-66.8-23.24-66.8-69.73v-141.21h29.3v141.21c0,13.87,3.05,24.32,9.16,31.35,6.1,7.03,15.75,10.55,28.93,10.55,25.39,0,38.09-13.96,38.09-41.89v-141.21h29.3v141.21c0,23.24-5.76,40.67-17.29,52.29-11.52,11.62-28.42,17.43-50.68,17.43Z"/>
    <path class="cls-1" d="m343.65,614.5v-27.83h152.34v27.83h-152.34Zm61.52,91.4v-119.23h29.3v119.23h-29.3Z"/>
  </g>
</svg>